<svg xmlns="http://www.w3.org/2000/svg" width="67.5" height="67.5" viewBox="0 0 67.5 67.5">
  <path id="add-square-svgrepo-com" d="M35.75,69.5c-15.91,0-23.865,0-28.807-4.943S2,51.659,2,35.75,2,11.885,6.943,6.943,19.84,2,35.75,2,59.615,2,64.557,6.943,69.5,19.84,69.5,35.75s0,23.865-4.943,28.807S51.66,69.5,35.75,69.5Zm0-46.406a2.531,2.531,0,0,1,2.531,2.531v7.594h7.594a2.531,2.531,0,0,1,0,5.062H38.281v7.594a2.531,2.531,0,0,1-5.062,0V38.281H25.625a2.531,2.531,0,1,1,0-5.062h7.594V25.625A2.531,2.531,0,0,1,35.75,23.094Z" transform="translate(-2 -2)" fill="#052247" fill-rule="evenodd"/>
</svg>
