<svg xmlns="http://www.w3.org/2000/svg" width="76.391" height="76.391" viewBox="0 0 76.391 76.391">
  <g id="cog-svgrepo-com" transform="translate(-170 -120)">
    <path id="Path_45" data-name="Path 45" d="M244.529,151.081l-7.3-4.392,1.48-8.88a3.964,3.964,0,0,0-1.05-3.342l-5.729-5.729a3.738,3.738,0,0,0-3.342-1.05l-8.451,1.385-2.674-6.684A3.843,3.843,0,0,0,213.925,120H202.466a3.794,3.794,0,0,0-3.533,2.387l-2.674,6.684-8.4-1.385a3.964,3.964,0,0,0-3.342,1.05l-5.729,5.729a3.738,3.738,0,0,0-1.05,3.342l1.337,8.451-6.684,2.674A3.843,3.843,0,0,0,170,152.466v9.549a3.908,3.908,0,0,0,1.862,3.294l7.3,4.392-1.48,8.88a3.918,3.918,0,0,0,1.05,3.342l5.729,5.729a3.866,3.866,0,0,0,2.721,1.1,4.762,4.762,0,0,0,.764-.1l6.923-1.385,4.345,7.257a3.789,3.789,0,0,0,3.294,1.862h11.459A3.8,3.8,0,0,0,217.505,194l2.674-6.684,8.4,1.385a2.721,2.721,0,0,0,.621.048,3.951,3.951,0,0,0,2.721-1.1l5.729-5.729a3.738,3.738,0,0,0,1.05-3.342l-1.48-8.88,7.3-4.392a3.847,3.847,0,0,0,1.862-3.294v-7.639A3.908,3.908,0,0,0,244.529,151.081Zm-5.777,8.785-7.687,4.631-.048.048c-.143.1-.239.191-.382.286a.838.838,0,0,0-.239.191c-.1.1-.143.191-.239.239l-.286.286a1.043,1.043,0,0,0-.143.239,1.674,1.674,0,0,0-.239.382.69.69,0,0,0-.1.334c-.048.143-.1.239-.143.382a.813.813,0,0,0-.048.334c0,.143-.048.286-.048.43v.286a1.624,1.624,0,0,0,.048.477v.048l1.576,9.5-2.96,2.96-9.5-1.576h-.239c-.143,0-.334-.048-.477-.048-.1,0-.191.048-.334.048s-.286.048-.43.048c-.1.048-.239.048-.334.1-.143.048-.239.1-.382.143l-.286.143c-.1.048-.239.143-.334.191s-.143.143-.239.191l-.286.286c-.1.1-.143.191-.239.286s-.143.191-.239.286a.959.959,0,0,0-.191.382l-.143.286-2.865,7.162h-6.732l-4.631-7.687c0-.048-.048-.048-.048-.1s-.048-.048-.048-.1c-.048-.1-.143-.143-.191-.239a1.041,1.041,0,0,0-.191-.239l-.048-.048a.167.167,0,0,0-.1-.048c-.048-.048-.1-.1-.143-.1a1.266,1.266,0,0,0-.286-.239l-.286-.143c-.143-.048-.239-.143-.382-.191-.1-.048-.191-.048-.286-.1l-.43-.143c-.1,0-.191-.048-.286-.048-.143,0-.286-.048-.43-.048H196.5a1.625,1.625,0,0,0-.477.048h-.1l-7.544,1.528-2.912-2.912,1.576-9.5v-.048a1.624,1.624,0,0,0,.048-.477v-.286c0-.143-.048-.239-.048-.382s-.048-.239-.048-.382c-.048-.1-.048-.191-.1-.286a3.289,3.289,0,0,0-.143-.382,2.075,2.075,0,0,1-.191-.334,2.733,2.733,0,0,0-.191-.334.575.575,0,0,0-.239-.239l-.286-.286c-.048-.048-.143-.1-.239-.191-.143-.1-.239-.191-.382-.286l-.048-.048-7.687-4.631V155.14l7.114-2.817h.048c.1-.048.143-.1.239-.1a1.936,1.936,0,0,0,.43-.239,1.265,1.265,0,0,0,.286-.239c.1-.1.191-.143.286-.239a1.267,1.267,0,0,0,.239-.286c.1-.1.143-.191.239-.286a1.2,1.2,0,0,0,.191-.334,2.076,2.076,0,0,0,.191-.334,19211.869,19211.869,0,0,0,.191-.668,1.186,1.186,0,0,0,.048-.382c0-.1.048-.239.048-.334a1.958,1.958,0,0,0-.048-.525v-.286h0l-1.576-9.453,2.96-2.96,9.453,1.576h.286c.143,0,.334.048.477.048s.286-.048.43-.048a.605.605,0,0,0,.286-.048l.43-.143c.1-.048.191-.048.239-.1.143-.048.239-.143.382-.191a1.044,1.044,0,0,0,.239-.143.856.856,0,0,1,.334-.239c.1-.1.191-.143.239-.239.1-.1.191-.239.286-.334.048-.1.143-.143.191-.239.1-.143.143-.286.239-.43.048-.1.1-.143.1-.191V134.9h0l2.865-7.114h6.3l2.865,7.162a.047.047,0,0,0,.048.048,4.158,4.158,0,0,0,.525.859l.143.143a5.111,5.111,0,0,0,.764.668.148.148,0,0,0,.1.048,4.231,4.231,0,0,0,.812.382c.048,0,.1.048.191.048a3.394,3.394,0,0,0,1,.143h.048c.143,0,.286-.048.43-.048h.286l9.453-1.576,2.96,2.96-1.576,9.5v.048a1.625,1.625,0,0,0-.048.477v.286c0,.143.048.286.048.43a.812.812,0,0,0,.048.334c.048.143.1.239.143.382.048.1.048.239.1.334a1.04,1.04,0,0,0,.239.382c.048.1.1.143.143.239l.286.286c.1.1.143.191.239.239s.143.143.239.191c.143.1.239.191.382.286l.048.048,7.687,4.631v3.151Z" fill="#052247"/>
    <path id="Path_46" data-name="Path 46" d="M233.278,167.1a15.278,15.278,0,1,0,15.278,15.278A15.323,15.323,0,0,0,233.278,167.1Zm0,22.917a7.639,7.639,0,1,1,7.639-7.639A7.662,7.662,0,0,1,233.278,190.017Z" transform="translate(-25.083 -24.613)" fill="#052247"/>
  </g>
</svg>
