<svg xmlns="http://www.w3.org/2000/svg" width="88.077" height="88.085" viewBox="0 0 88.077 88.085">
  <path id="Subtraction_1" data-name="Subtraction 1" d="M-2534.977-240.983h-.018c-.588-.036-2.566-2.053-4.479-4l0,0a22.208,22.208,0,0,0-3.529-3.265,1.09,1.09,0,0,0-.3-.031,35.638,35.638,0,0,0-4.448.7l-.337.064a36.373,36.373,0,0,1-5.075.768,1.222,1.222,0,0,1-.565-.089c-.5-.3-1.317-3.008-2.1-5.622l0-.009a22.24,22.24,0,0,0-1.608-4.532,22.253,22.253,0,0,0-4.536-1.618c-2.615-.792-5.318-1.611-5.621-2.115s.232-3.276.75-5.957a22.254,22.254,0,0,0,.684-4.769,22.244,22.244,0,0,0-3.267-3.544c-1.946-1.916-3.957-3.895-3.991-4.481s1.728-2.794,3.433-4.927a22.257,22.257,0,0,0,2.821-3.9,22.25,22.25,0,0,0-1.245-4.65c-.833-2.6-1.7-5.293-1.453-5.829s2.828-1.67,5.329-2.767a22.276,22.276,0,0,0,4.313-2.146,22.28,22.28,0,0,0,1.059-4.7c.471-2.692.958-5.473,1.421-5.835a3.4,3.4,0,0,1,1.58-.2c1.092,0,2.568.1,4.243.215l.183.013c1.481.1,2.881.2,3.81.2a3.089,3.089,0,0,0,1.005-.1,22.258,22.258,0,0,0,3.121-3.667c1.669-2.165,3.392-4.4,3.971-4.506a.359.359,0,0,1,.064-.005c.677,0,3,1.433,5.242,2.82a22.265,22.265,0,0,0,4.214,2.329h.025a23.668,23.668,0,0,0,4.446-1.8l.394-.181c2.272-1.043,4.37-1.979,5.075-1.979a.47.47,0,0,1,.138.017c.562.175,2,2.606,3.39,4.956a22.231,22.231,0,0,0,2.65,4.022,22.258,22.258,0,0,0,4.792.486c2.727.143,5.547.292,5.963.708s.559,3.236.7,5.963a22.24,22.24,0,0,0,.478,4.795,22.242,22.242,0,0,0,4.015,2.655c2.351,1.4,4.779,2.837,4.954,3.4s-1.01,3.127-2.155,5.607a22.258,22.258,0,0,0-1.8,4.464,22.257,22.257,0,0,0,2.32,4.215l0,0c1.431,2.326,2.911,4.731,2.8,5.309s-2.346,2.3-4.512,3.963a22.266,22.266,0,0,0-3.673,3.115,22.262,22.262,0,0,0,.1,4.815c.186,2.725.379,5.543.016,6.005s-3.147.945-5.839,1.412a22.286,22.286,0,0,0-4.7,1.051,22.269,22.269,0,0,0-2.153,4.308c-1.1,2.5-2.24,5.084-2.776,5.325a.681.681,0,0,1-.266.04,27.619,27.619,0,0,1-5.182-1.382l-.382-.123a27.411,27.411,0,0,0-4.536-1.259.61.61,0,0,0-.108.008,22.26,22.26,0,0,0-3.912,2.816C-2532.179-242.722-2534.364-240.983-2534.977-240.983Zm1.316-54.739a13.784,13.784,0,0,0-13.29,10.207,13.784,13.784,0,0,0,9.735,16.862,13.817,13.817,0,0,0,3.571.472,13.785,13.785,0,0,0,13.29-10.208,13.677,13.677,0,0,0-1.375-10.447,13.675,13.675,0,0,0-8.36-6.414A13.8,13.8,0,0,0-2533.661-295.721Z" transform="matrix(0.996, -0.087, 0.087, 0.996, 2591.73, 103.861)" fill="#052247"/>
</svg>
