<svg xmlns="http://www.w3.org/2000/svg" width="74.089" height="74.089" viewBox="0 0 74.089 74.089">
  <path id="cog-svgrepo-com_1_" data-name="cog-svgrepo-com (1)" d="M32.416,0,27.8,10.993a13.168,13.168,0,0,0-2.587,1.2L14.217,7.575,7.565,14.227,12.184,25.22c-.462.924-.831,1.663-1.2,2.587L-.01,32.426v9.238l10.993,4.619c.37.924.739,1.663,1.2,2.587L7.565,59.863l6.651,6.651L25.21,61.895c.831.37,1.663.831,2.587,1.2l4.619,10.993h9.238L46.273,63.1c.831-.37,1.755-.739,2.587-1.2l10.993,4.619L66.5,59.863,61.885,48.869c.37-.831.831-1.755,1.2-2.587l10.993-4.619V32.426L63.086,27.807a16.2,16.2,0,0,0-1.2-2.587L66.5,14.227,59.853,7.575,48.859,12.194c-.831-.37-1.755-.831-2.587-1.2L41.654,0H32.416Zm4.619,23.1A13.857,13.857,0,1,1,23.177,36.952,13.839,13.839,0,0,1,37.035,23.1Z" transform="translate(0.01)" fill="#052247"/>
</svg>
