<svg xmlns="http://www.w3.org/2000/svg" width="187.991" height="225.968" viewBox="0 0 187.991 225.968">
  <g id="g1" transform="translate(446.36 -1508.82)">
    <g id="g7" transform="translate(-585.322 1508.82)">
      <path id="path1" d="M658.411,1116.82l-4.829,2.05c-5.844,2.48-5.183,1.812-5.39,5.447l-.174,3.045-.758-.111-.758-.111-.394.327-.394.327v5.42l.33.249c.182.137,1.876.915,3.766,1.729,7.321,3.156,36.07,16.421,45.98,21.216,5.142,2.488,19.985,9.451,26.483,12.423l4.021,1.839.009,6.538.009,6.538,2.392,1.2,2.393,1.2-.081,52.18-.08,52.18h-2.731l0,.006.008.006-1.131,3.888.02.01-.045.018-.006.02-.008-.015-.34.13-.4.153.071,6.943.07,6.943,10.24.069,10.24.069c0-5.767-.45-17.03-.175-17.815.081-.232-1.649-.161-2.211-.161h-1.022l-.091-3.9c-.05-2.144-.116-22.984-.146-46.31s-.126-44.672-.214-47.433l-.159-5.021,1.613-1.02,1.613-1.02v-6.763l6.012,2.588c3.306,1.424,8.687,3.8,11.957,5.287s6.28,2.835,6.689,3l.743.3-.056,3.83-.056,3.83,4.07,1.535,4.07,1.534,2.51-.294c1.381-.161,2.942-.358,3.469-.437l.959-.144.182-2.566.182-2.567,4.376-.689c5.142-.809,4.9-.643,5.047-3.459l.117-2.215-.619-.433a2.468,2.468,0,0,0-1.154-.433h-.536l.082-2.739.083-2.739-.769-.769a135.63,135.63,0,0,0-13.314-7.5l-1.015-.406-6.211-8.182c-7.37-9.71-8.884-11.7-16.29-21.4-3.108-4.069-7.367-9.658-9.465-12.42s-4.681-6.14-5.741-7.509a13.241,13.241,0,0,1-1.927-2.961c0-.6-.549-1.818-.821-1.818-.114,0-.363-.318-.552-.707l-.345-.707-.753-.248-.753-.248-.791.585-.791.585L729,1120.074c-3.148.7-10.777,2.463-16.954,3.911s-14.966,3.5-19.531,4.557l-8.3,1.925-2.4-1.23c-1.321-.677-5.843-3.081-10.049-5.342s-8.93-4.779-10.5-5.593Zm68.629,177.62.014-.005,0-.011-.022.008Zm6.014-172.47c.039.042-.09,1.682-.285,3.644s-.837,8.8-1.424,15.195-1.158,12.046-1.268,12.557l-.2.93-2.378-1.271c-3.135-1.675-30.934-16.172-38.385-20.017l-1.389-.718,1.654-.32c.91-.176,6.232-1.387,11.828-2.691,24.964-5.816,31.781-7.382,31.847-7.31ZM668,1125.086a69.753,69.753,0,0,1,6.412,3.506,12.311,12.311,0,0,1,.992,2.42c.861,2.61,1.224,2.591-3.408.175l-3.956-2.064-.077-2.019A9.1,9.1,0,0,1,668,1125.086Zm72.128.631c.061-.057,14.557,18.877,28.13,36.742l9.049,11.911-.178.4a6.546,6.546,0,0,0-.132,3.345,2.174,2.174,0,0,1,.125,1.216c-.172.9-.026.93-2.719-.615-1.235-.709-8.986-5.008-17.224-9.554l-14.978-8.266-.144-1.586c-.079-.872-.39-6.342-.691-12.156s-.715-13-.92-15.977-.348-5.429-.318-5.457Zm-62.976,4.219,3.788,1.921,3.789,1.922.7,2.313c.854,2.833,1.254,2.776-3.159.455l-3.743-1.969-.567-1.906c-.312-1.048-.62-2.092-.686-2.32Zm10.093,5.176,3.935,2.041,3.934,2.041.8,2.374c.964,2.873,1.4,2.821-3.259.39-4.69-2.444-4.02-1.806-4.776-4.556Zm10.6,5.662c.043-.043,1.856.839,4.029,1.961l3.951,2.039.847,2.444a8.972,8.972,0,0,1,.661,2.415c-.1-.016-1.911-.959-4.018-2.1s-3.919-2.1-4.025-2.151A23.275,23.275,0,0,1,697.851,1140.774Zm10.717,5.47c.094.01,1.895.931,4,2.048l3.832,2.03.847,2.444a8.887,8.887,0,0,1,.661,2.438c-.1,0-2-.979-4.216-2.167l-4.03-2.16v-.333a18.309,18.309,0,0,0-.633-2.326,6.3,6.3,0,0,1-.462-1.975Zm10.257,5.442.506.194c.278.106,2.193,1.081,4.255,2.165l3.749,1.972.51,1.381c.28.76.656,1.835.836,2.39.457,1.414.573,1.442-4.076-.991l-4.2-2.2-.577-2.115a19.185,19.185,0,0,0-.788-2.455Zm20.126,46.6.032,4.624v0c.018,2.544,0,4.6-.044,4.571s-1.048-.094-2.235-.142l-2.159-.089.045-4.48.045-4.48,2.158,0ZM734.74,1212.7a8.709,8.709,0,0,1,2.18.017l1.943.164-.078,4.459-.078,4.459h-4.2v-8.953Zm-.237,14.385h4.228v4.624c0,2.543-.03,4.6-.066,4.571s-.988-.094-2.114-.143l-2.048-.09v-8.963Zm0,14.534h4.228v4.625c0,2.543-.03,4.6-.066,4.571s-.988-.094-2.114-.143l-2.048-.09v-8.963Zm0,14.534h4.228v4.492c0,2.471-.03,4.469-.066,4.439s-.988-.093-2.114-.143l-2.048-.09v-8.7Zm0,14.005h4.2l.078,4.493.078,4.492H734.5v-8.985Z" transform="translate(-469.448 -1116.82)" fill="#031833"/>
      <path id="path2" d="M162.535,1185.43S237.981,1331.464,185,1373.713s-64.371-7.968-64.371-7.968" transform="translate(21.322 -1167.3)" fill="none" stroke="#031935" stroke-linecap="round" stroke-linejoin="round" stroke-width="5"/>
    </g>
  </g>
</svg>
