<svg xmlns="http://www.w3.org/2000/svg" xmlns:xlink="http://www.w3.org/1999/xlink" width="91.093" height="173.425" viewBox="0 0 91.093 173.425">
  <defs>
    <radialGradient id="radial-gradient" cx="0.5" cy="0.5" r="0.5" gradientUnits="objectBoundingBox">
      <stop offset="0" stop-color="#fff"/>
      <stop offset="1" stop-color="#fff" stop-opacity="0"/>
    </radialGradient>
    <linearGradient id="linear-gradient" x1="0.196" y1="0.447" x2="1.416" y2="0.529" gradientUnits="objectBoundingBox">
      <stop offset="0" stop-color="#9eafc5"/>
      <stop offset="1" stop-color="#052247"/>
    </linearGradient>
  </defs>
  <g id="Group_24" data-name="Group 24" transform="translate(-1773.314 -4662.807)">
    <g id="Group_23" data-name="Group 23" transform="translate(1773.314 4662.807)">
      <path id="path1-8" d="M143.778,1194.468a19.787,19.787,0,0,0-2.114.206l-2.189.335-2.994,1.241-2.995,1.241-1.748,1.221c-5.033,3.515-10.628,9.649-15.107,16.562l-.434.669v0l-2.507,4.181-.01,0c-.155.359-.441.841-.859,1.581-7.522,13.323-12.6,34.045-10.981,44.844l.4,2.649,1.113,3.024,1.112,3.023,1.413,2.292a46.883,46.883,0,0,0,11.333,12.339l1.839,1.349.113,2.461a69.164,69.164,0,0,0,1.713,11.335l.642,2.641,1.815,4.551,1.816,4.552,1.991,3.459a71.877,71.877,0,0,0,14.34,17.774l3.6,3.372.007,0,2.732,2.368.018-.009.151.181a139.536,139.536,0,0,0,11.241,8.268c1.584,1.079,30.107,14.361,31.959,15.682l1.449-3.061c-1.518-1.083-29.74-14.142-31.046-15.029-4.821-3.275-10.063-7.092-10.387-7.561l-.037-.013-2.886-2.527-.269-.2c-7.558-5.6-16.152-16.62-20.658-26.5l-1.565-3.432-1.048-3.72a56.664,56.664,0,0,1-2.056-10.24l-.261-2.351,1.643.665a19.885,19.885,0,0,0,11.075,1.262l1.9-.376,2.247-.979,2.248-.978,1.624-1.178c4.366-3.17,6.639-6.451,13.019-18.795,1.408-2.725,3.309-6.283,4.223-7.906l.751-1.334,0-.014,2.747-5.092v0l3.144-6.942c8.061-17.8,9.1-27.046,4.219-37.691l0,0c-5.491-11.984-16.852-19.886-27.478-19.417Z" transform="translate(-101.543 -1194.448)" fill="#052247"/>
      <path id="path7" d="M286,1350.261s9.367-29.115,10.761-50.219c1.247-18.867,17.487-18.384,16.142-30.042,0,0,4.372,5.913,4.344,15.946s-9.047,28.91-12.139,34.537-11.1,20.688-11.1,20.688S290.512,1347.767,286,1350.261Z" transform="translate(-244.646 -1253.062)" fill="#fff" stroke="#fff" stroke-width="1" opacity="0.56"/>
      <path id="Path_14" data-name="Path 14" d="M24.885-8.911c13.744,0,24.885,12.7,24.885,25.9s-11.142,23.9-24.885,23.9S0,30.184,0,16.985,11.142-8.911,24.885-8.911Z" transform="translate(17.186 9.155)" fill="url(#radial-gradient)" style="mix-blend-mode: overlay;isolation: isolate"/>
      <path id="Path_25" data-name="Path 25" d="M161.4,673.94l48.5,6.641" transform="translate(-160.336 -616.293)" fill="#fff"/>
    </g>
    <path id="Union_12" data-name="Union 12" d="M18.2,40.082l-.053-.234-.292-1.286a.328.328,0,0,1-.008-.1l0-.012a22.862,22.862,0,0,1-.508-4.814c0-.932.049-1.62.078-1.932l-.961-.034a2.018,2.018,0,0,1-1.946-2.087l.438-12.547c.039-1.114.106-2.884,1.508-3.525l1.855.252.018-.066a101.649,101.649,0,0,1,1.791-10.28L0,.666.091,0l48.5,6.641-.091.666L21.238,3.574l-.651,2.338c-.547,2.763-1.109,6.663-1.295,7.989l2.382.324a4.684,4.684,0,0,1,.438,3.065l-.438,12.547a2.018,2.018,0,0,1-2.015,1.947h-.072l-1.5-.052c-.026.274-.081.972-.079,1.919a22.186,22.186,0,0,0,.492,4.658c.077.348.145.65.2.941l.12.531.033.149v.005h0a.337.337,0,0,1-.253.405.353.353,0,0,1-.076.008A.336.336,0,0,1,18.2,40.082ZM15.831,15.291a7.336,7.336,0,0,0-.215,1.772L15.177,29.61A1.347,1.347,0,0,0,16.475,31l3.137.11A1.347,1.347,0,0,0,21,29.814l.438-12.547c.009-.259.029-.468.047-.651a2.822,2.822,0,0,0,.006-.776,5.12,5.12,0,0,0-.3-1l-4.623-.629A1.767,1.767,0,0,0,15.831,15.291Z" transform="translate(1774.329 4720.122)" fill="#fff" opacity="0.08" style="mix-blend-mode: luminosity;isolation: isolate"/>
    <path id="Path_43" data-name="Path 43" d="M2908.038,1097.529a2.82,2.82,0,0,1,2.751.123,4.118,4.118,0,0,1,1.007,1.965,15.984,15.984,0,0,1,0,7.051c-.934,3.145-1.277,2.629-1.523,2.727a3.8,3.8,0,0,1-2.506-.319c-.565-.516-1.636-2.8-1.636-5.828S2907.3,1097.849,2908.038,1097.529Z" transform="translate(-1117.368 3639.43)" stroke="#052247" stroke-width="1" fill="url(#linear-gradient)"/>
  </g>
</svg>
