<svg xmlns="http://www.w3.org/2000/svg" width="67.365" height="67.365" viewBox="0 0 67.365 67.365">
  <path id="Subtraction_4" data-name="Subtraction 4" d="M51.61,67.365H15.755A15.742,15.742,0,0,1,0,51.61V15.755A15.742,15.742,0,0,1,15.755,0H51.61A15.742,15.742,0,0,1,67.365,15.755V51.61A15.742,15.742,0,0,1,51.61,67.365Zm-31.118-46.1v3.1h2.779a13.967,13.967,0,1,0,10.411-4.655v3.1A10.863,10.863,0,1,1,22.82,33.683a10.709,10.709,0,0,1,.816-4.109,10.9,10.9,0,0,1,2.288-3.467v3.7h3.1V21.268Z" fill="#052247"/>
</svg>
